<svg version="1.1" id="Layer_1" xmlns="http://www.w3.org/2000/svg" xmlns:xlink="http://www.w3.org/1999/xlink" x="0px" y="0px"
	 width="100%" viewBox="0 0 773 1189" enable-background="new 0 0 773 1189" xml:space="preserve">
<path fill="#FFFFFF" opacity="1.000000" stroke="none" 
	d="
M1.000000,353.000000 
	C1.000000,235.348251 1.000000,118.196503 1.000000,1.022376 
	C258.618927,1.022376 516.237854,1.022376 773.928406,1.022376 
	C773.928406,397.235138 773.928406,793.470276 773.928406,1189.852783 
	C516.333374,1189.852783 258.666718,1189.852783 1.000000,1189.852783 
	C1.000000,911.095398 1.000000,632.297668 1.000000,353.000000 
M132.190689,358.087616 
	C131.461029,359.355286 130.144531,360.603119 130.100830,361.894043 
	C129.883636,368.309845 130.001709,374.737000 130.001709,381.417297 
	C131.133514,381.197601 132.067017,381.016418 133.682327,380.705048 
	C135.070526,379.832489 136.372238,378.758789 137.860489,378.118927 
	C150.987015,372.475067 164.147461,366.910156 177.296387,361.318390 
	C194.832260,353.860992 212.368790,346.405182 229.901337,338.939972 
	C248.341965,331.088043 266.791290,323.256256 285.212616,315.359283 
	C302.431335,307.977814 319.602142,300.484528 336.823578,293.109436 
	C356.906860,284.508728 377.021667,275.981750 397.123779,267.425018 
	C406.893707,263.266327 416.665833,259.112762 427.000000,254.717407 
	C427.000000,257.274994 427.000000,259.086792 427.000000,260.898590 
	C427.000000,283.393890 427.210114,305.892609 426.840057,328.381836 
	C426.756256,333.475800 428.984528,335.299286 432.981995,336.973267 
	C450.709930,344.396973 468.386536,351.944763 486.040466,359.543457 
	C501.590576,366.236542 517.061035,373.114868 532.611877,379.806274 
	C552.983154,388.571838 573.411438,397.204590 593.791260,405.950500 
	C609.195679,412.561218 624.545471,419.299438 639.950378,425.909119 
	C660.028687,434.524017 680.135803,443.071991 700.234070,451.640442 
	C708.320679,455.087952 716.416687,458.513428 725.000000,462.157623 
	C725.000000,459.647919 725.000000,457.827148 725.000000,456.006378 
	C725.000000,426.345917 724.905884,396.684906 725.089722,367.025574 
	C725.121521,361.900360 725.309387,357.469330 718.563843,357.141083 
	C717.950134,357.111206 717.363708,356.612396 716.756165,356.350922 
	C701.813110,349.919678 686.879395,343.466431 671.922241,337.068146 
	C651.985168,328.539581 632.006470,320.108002 612.088989,311.534149 
	C594.123962,303.800690 576.253052,295.848206 558.275635,288.143829 
	C536.081970,278.632416 513.788208,269.354492 491.599701,259.831329 
	C473.474823,252.052307 455.489044,243.947861 437.334259,236.240585 
	C432.525513,234.199112 427.728882,230.942505 421.952393,233.515030 
	C414.296265,236.924622 406.595154,240.233719 398.900604,243.556458 
	C381.613159,251.021698 364.325073,258.485474 347.023895,265.918793 
	C326.344238,274.803650 305.608032,283.558411 284.976807,292.554077 
	C269.025879,299.509003 253.259064,306.886627 237.301544,313.826050 
	C217.116180,322.603943 196.828232,331.146423 176.569534,339.755096 
	C162.058090,345.921570 147.522018,352.030090 132.190689,358.087616 
M130.036133,172.958374 
	C130.036133,179.766830 130.036133,186.575272 130.036133,193.938416 
	C131.464294,193.071472 132.248505,192.595428 133.791962,192.024429 
	C149.213882,185.504532 164.654388,179.028168 180.052780,172.453186 
	C197.429810,165.033371 214.758469,157.500443 232.127258,150.061325 
	C252.058777,141.524597 272.029236,133.078659 291.948883,124.514496 
	C307.650238,117.763924 323.277893,110.841919 338.978699,104.090080 
	C359.048065,95.459610 379.154755,86.915703 399.252136,78.350517 
	C408.270630,74.506981 417.305695,70.702332 427.000000,66.597740 
	C427.000000,69.217300 427.000000,71.011162 427.000000,72.805031 
	C427.000061,95.797844 426.935333,118.791176 427.121216,141.782486 
	C427.136322,143.652771 428.396790,146.555740 429.868042,147.213791 
	C449.366333,155.934753 468.978821,164.403229 488.617401,172.807068 
	C513.079590,183.275040 537.624207,193.550705 562.074341,204.046738 
	C584.875732,213.835052 607.573120,223.865448 630.365173,233.675659 
	C655.563477,244.521545 680.813782,255.246857 706.049744,266.005249 
	C712.207397,268.630310 718.397461,271.179321 724.997253,273.940979 
	C724.997253,240.104599 725.045593,206.955963 724.845215,173.808823 
	C724.835815,172.258194 722.933350,169.968430 721.364624,169.290131 
	C696.942200,158.730194 672.397461,148.453552 647.946411,137.959015 
	C625.144348,128.172241 602.445862,118.144524 579.654297,108.333252 
	C552.194519,96.512421 524.671387,84.838631 497.200378,73.043709 
	C474.702942,63.384232 452.250305,53.620373 429.740173,43.990818 
	C428.555328,43.483967 426.818146,43.323837 425.676575,43.805088 
	C413.109589,49.102978 400.609802,54.560158 388.091827,59.974331 
	C372.708099,66.627998 357.341766,73.322235 341.936401,79.925491 
	C322.007751,88.467583 302.008179,96.845375 282.118866,105.477631 
	C272.575775,109.619469 263.296661,114.369881 253.751328,118.506195 
	C243.194199,123.080940 232.418106,127.148453 221.834000,131.663406 
	C213.667160,135.147202 205.708649,139.118286 197.551193,142.625412 
	C186.376373,147.429794 175.100281,151.998596 163.868790,156.671173 
	C157.617767,159.271744 151.304733,161.735764 145.139450,164.526047 
	C140.056076,166.826660 135.148972,169.516724 130.036133,172.958374 
M493.729614,447.886932 
	C475.164520,439.901703 456.446198,432.247437 438.114197,423.758820 
	C431.334320,420.619446 425.577240,419.821045 418.617096,422.981262 
	C399.017670,431.880127 379.202698,440.308441 359.414948,448.787506 
	C334.956329,459.268066 310.408447,469.540619 285.956848,480.037506 
	C263.154083,489.826569 240.458939,499.866302 217.658417,509.660706 
	C189.281662,521.850403 160.836838,533.881714 132.467880,546.089478 
	C131.399399,546.549255 130.151962,548.118713 130.117416,549.206909 
	C129.902069,555.991089 130.008820,562.785583 130.008820,570.260620 
	C229.243515,527.658508 327.858185,485.322571 427.011536,442.755371 
	C427.011536,469.812683 427.011536,496.111450 427.011536,522.326660 
	C526.345093,564.992126 625.384766,607.531372 724.998108,650.317017 
	C724.998108,616.184265 725.029480,583.036438 724.882202,549.889282 
	C724.876343,548.578735 723.457520,546.624146 722.208923,546.070374 
	C710.194702,540.742126 698.063538,535.678467 685.988770,530.485901 
	C650.216736,515.102783 614.452881,499.700775 578.690186,484.295898 
	C550.620667,472.204834 522.557800,460.098541 493.729614,447.886932 
M352.683563,763.015503 
	C341.257568,765.010437 329.853027,767.140625 318.399170,768.960144 
	C308.051910,770.603821 297.657349,771.957703 287.271271,773.346924 
	C277.688751,774.628540 268.105103,775.930725 258.493439,776.956604 
	C250.145721,777.847595 241.760574,778.396545 233.387650,779.040771 
	C215.978302,780.380188 198.576126,782.609375 181.152893,782.797852 
	C149.500900,783.140320 117.760414,784.512634 86.238670,779.980713 
	C76.371147,778.561951 66.449409,777.309021 56.719353,775.207642 
	C47.776760,773.276245 39.058674,770.305359 30.068445,767.743042 
	C32.730045,776.554565 38.606018,783.006653 45.425198,789.062683 
	C63.003586,804.673706 84.276024,812.782715 106.530777,817.665222 
	C126.774971,822.106750 147.499420,824.988831 168.165924,826.685303 
	C186.084824,828.156250 204.230072,827.396179 222.255280,826.898254 
	C240.409988,826.396851 258.550964,825.164246 276.676514,823.935669 
	C286.502594,823.269592 296.334137,822.281128 306.073303,820.833191 
	C319.317291,818.864075 332.484283,816.367004 345.668091,814.005554 
	C366.244598,810.319946 386.838379,806.719666 407.368439,802.788574 
	C434.132874,797.663696 460.782745,791.923401 487.592163,787.055237 
	C513.798706,782.296570 540.104614,778.040955 566.443542,774.072937 
	C581.200012,771.849854 596.076294,770.092346 610.963440,769.154785 
	C627.023682,768.143311 643.163940,767.961060 659.260681,768.151855 
	C667.742188,768.252380 676.273804,769.525574 684.658081,770.985474 
	C693.799377,772.577148 702.793518,775.010071 711.857300,777.051880 
	C716.532349,778.104980 721.514587,777.974854 724.224915,773.885742 
	C726.770935,770.044739 724.717163,765.434875 722.261292,761.916748 
	C716.724304,753.984802 709.659912,747.651917 701.083618,742.992554 
	C676.096130,729.417175 648.716797,725.375977 621.000854,724.238281 
	C595.537415,723.192932 569.966187,723.255310 544.583801,726.946594 
	C535.330811,728.292297 525.927979,728.678345 516.719727,730.244629 
	C501.439270,732.843750 486.232269,735.903687 471.046112,739.021667 
	C446.281067,744.106384 421.573273,749.469971 396.810760,754.567383 
	C382.425110,757.528564 367.979889,760.200073 352.683563,763.015503 
M358.194641,1147.000000 
	C367.523468,1145.717285 375.787170,1141.983765 383.070862,1135.915405 
	C384.328796,1136.714600 386.076202,1137.181152 386.421906,1138.148560 
	C388.713226,1144.560913 393.883331,1144.155396 399.131317,1144.029541 
	C405.427399,1143.878418 405.995239,1143.430542 405.996460,1137.135132 
	C406.003662,1099.477051 406.002258,1061.819092 405.997894,1024.161011 
	C405.997101,1017.278931 404.822968,1016.046570 397.973724,1016.012329 
	C388.309509,1015.963989 378.644897,1016.000061 368.980438,1016.000000 
	C356.000000,1016.000000 356.000000,1016.000000 356.000000,1028.704590 
	C356.000000,1040.343140 355.996246,1040.431030 367.938995,1040.940796 
	C370.952209,1041.069458 372.044373,1042.141968 372.034424,1045.120361 
	C371.965393,1065.782104 372.476837,1086.460083 371.786926,1107.098999 
	C371.464661,1116.741211 364.999939,1121.916138 356.348083,1121.683838 
	C348.201080,1121.464966 341.937317,1117.785522 341.956696,1106.710083 
	C342.052032,1052.222778 341.970581,997.735107 342.064423,943.247803 
	C342.070862,939.508118 342.568146,935.645935 343.600250,932.060425 
	C345.111725,926.809692 353.719666,922.137817 359.111694,923.098267 
	C366.873810,924.480896 371.657410,929.774475 372.018799,937.196716 
	C372.235046,941.638306 372.760529,946.065979 372.931366,950.508179 
	C373.045227,953.467468 374.646057,954.048584 377.176056,954.025146 
	C385.006927,953.952515 392.839630,953.935852 400.670135,954.026306 
	C404.478760,954.070251 406.225128,952.356750 405.995911,948.595032 
	C405.674530,943.320007 405.714264,937.987488 404.916656,932.784241 
	C403.305908,922.275940 399.889221,912.540649 390.090515,906.666504 
	C375.866669,898.139587 360.123230,897.840210 344.413757,899.552063 
	C337.757141,900.277405 330.831451,902.577393 324.984192,905.863220 
	C311.929169,913.199341 308.169769,926.124268 308.093445,940.003967 
	C307.844238,985.325562 307.927551,1030.649658 308.045898,1075.972168 
	C308.079712,1088.911011 308.134979,1101.891602 309.180023,1114.771973 
	C309.928894,1124.002075 314.075500,1132.158691 322.101715,1137.604492 
	C332.707245,1144.800537 344.566040,1147.535645 358.194641,1147.000000 
M546.976746,1118.762085 
	C547.662231,1125.638916 548.088745,1132.558472 549.213501,1139.362671 
	C549.498352,1141.085938 551.887390,1143.596069 553.517517,1143.767334 
	C560.899597,1144.543701 568.379089,1145.112793 575.778503,1144.773926 
	C581.540588,1144.510254 582.935120,1141.454590 581.798035,1135.564209 
	C580.400940,1128.326660 579.238647,1121.043579 578.001282,1113.775635 
	C575.443298,1098.749878 572.875671,1083.725708 570.362793,1068.692505 
	C567.876160,1053.815796 565.469421,1038.925537 562.995117,1024.046753 
	C560.817322,1010.950928 558.579407,997.865112 556.395691,984.770264 
	C553.914856,969.893433 551.504150,955.004822 548.988647,940.133911 
	C547.048462,928.664246 544.981201,917.216125 542.996521,905.753906 
	C542.392883,902.267761 540.618896,900.757751 536.865723,900.921631 
	C530.382080,901.204773 523.876587,901.052734 517.381470,900.980347 
	C513.702576,900.939392 511.585541,902.331909 510.944305,906.214294 
	C507.018311,929.984314 503.039429,953.746094 498.936859,977.486206 
	C494.388611,1003.805298 489.541199,1030.073364 485.096191,1056.409424 
	C480.484436,1083.733643 476.249481,1111.121094 471.703339,1138.456665 
	C471.156555,1141.744629 471.927734,1143.757568 475.218536,1143.960938 
	C482.802521,1144.429932 490.403107,1144.771240 497.999817,1144.837158 
	C502.271393,1144.874146 504.288788,1141.921509 504.882141,1138.005737 
	C505.374847,1134.754272 505.635620,1131.467773 505.996460,1128.196533 
	C507.348480,1115.939941 508.487396,1103.654053 510.183594,1091.445312 
	C510.673950,1087.915894 510.652740,1083.000488 516.484436,1083.004639 
	C523.480103,1083.009644 530.494995,1082.720703 537.458740,1083.192383 
	C539.359131,1083.321045 541.934937,1085.361694 542.724915,1087.169678 
	C543.859375,1089.766235 543.623230,1092.956177 544.003723,1095.888672 
	C544.954041,1103.211914 545.922241,1110.532715 546.976746,1118.762085 
M55.903351,494.438293 
	C43.599018,494.296967 31.293877,494.056885 18.991518,494.157349 
	C17.668535,494.168182 15.736146,495.910645 15.189981,497.287567 
	C14.310011,499.505981 14.047279,502.088654 14.044475,504.518036 
	C13.985612,555.492920 13.999991,606.467896 14.000007,657.442871 
	C14.000011,669.936768 14.179858,682.434814 13.889167,694.921936 
	C13.803418,698.605408 15.301181,700.406128 18.420979,700.629089 
	C25.595671,701.141968 32.855637,701.952026 40.689156,699.051208 
	C40.689156,668.199829 40.689156,637.332764 40.689156,606.659607 
	C48.702274,604.740173 55.121437,606.281067 58.833920,612.672729 
	C61.199371,616.745300 62.737782,621.896240 62.819920,626.595581 
	C63.218693,649.410706 63.058048,672.236938 62.940437,695.058472 
	C62.921917,698.651733 63.919163,700.231628 67.743721,700.061646 
	C73.230179,699.817810 78.743439,699.820374 84.230164,700.061218 
	C88.024712,700.227844 89.076881,698.706360 89.060333,695.084656 
	C88.945358,669.930908 89.155190,644.774597 88.880249,619.623291 
	C88.818344,613.960388 87.973389,608.057312 83.358849,603.733337 
	C80.572166,601.122131 77.778412,598.518555 74.243248,595.215881 
	C76.269409,593.562744 78.636070,592.429382 79.770775,590.551636 
	C82.793457,585.549377 87.342781,580.332520 87.616539,575.012268 
	C88.567818,556.524353 88.635056,537.920166 87.641411,519.435303 
	C87.201691,511.255127 82.882767,503.221924 74.680862,499.559174 
	C69.102570,497.068024 62.727753,496.360474 55.903351,494.438293 
M164.000000,1099.500000 
	C164.000336,1112.825317 164.028671,1126.150879 163.977112,1139.475952 
	C163.966919,1142.111694 164.303055,1144.032471 167.658432,1144.024048 
	C190.644638,1143.966187 213.631042,1144.000244 236.617386,1143.981934 
	C239.917603,1143.979370 241.253723,1142.362183 241.059540,1138.967041 
	C240.812622,1134.650391 241.007553,1130.308960 240.998138,1125.978149 
	C240.985260,1120.061035 240.028183,1119.040283 234.085190,1119.013306 
	C223.591629,1118.965698 213.096832,1118.922363 202.604340,1119.038574 
	C198.564438,1119.083374 196.949768,1117.393066 196.962128,1113.372070 
	C197.038467,1088.553711 197.049789,1063.734741 196.952271,1038.916626 
	C196.935654,1034.688843 198.503387,1032.853394 202.816177,1032.953247 
	C210.141235,1033.123047 217.474106,1033.074585 224.801712,1032.973877 
	C229.967209,1032.902954 231.965820,1030.798218 231.994492,1025.741455 
	C232.019989,1021.244263 231.943100,1016.745850 232.020859,1012.249878 
	C232.063568,1009.779602 231.598923,1008.035828 228.583282,1007.949463 
	C219.815750,1007.698486 211.050919,1007.078064 202.286636,1007.106201 
	C198.044556,1007.119812 196.895081,1005.685608 196.923981,1001.605103 
	C197.083206,979.119568 196.999390,956.632324 197.000351,934.145630 
	C197.000671,926.848694 197.792938,926.037048 205.304199,926.008972 
	C215.131577,925.972229 224.961594,925.872192 234.785599,926.057800 
	C239.217499,926.141479 241.279617,924.578979 241.044678,919.979858 
	C240.832504,915.826477 241.016739,911.653625 240.995911,907.489502 
	C240.966705,901.649475 240.312515,901.007446 234.258957,901.004272 
	C213.104828,900.993225 191.950699,900.992493 170.796570,901.004272 
	C164.075043,901.007996 164.001511,901.094971 164.001297,907.613159 
	C163.999146,971.242126 164.000000,1034.871094 164.000000,1099.500000 
M17.000000,170.500000 
	C17.000000,188.318909 16.999983,206.137817 17.000010,223.956726 
	C17.000021,231.284134 17.113300,238.613953 16.956673,245.938004 
	C16.866339,250.162155 17.993906,252.466599 22.853830,252.082764 
	C27.653316,251.703720 32.506142,252.003403 37.335560,251.999161 
	C43.913658,251.993378 43.991245,251.938324 43.995247,245.257294 
	C44.008022,223.941223 43.961193,202.625015 44.029800,181.309158 
	C44.045177,176.531067 42.672665,170.087479 45.160515,167.454605 
	C47.555607,164.919861 54.145771,166.528824 58.847748,165.950928 
	C65.472260,165.136734 72.313431,165.021393 77.974228,160.560196 
	C87.441612,153.099091 91.126175,142.811264 91.905586,131.358261 
	C92.424553,123.732414 92.190620,116.042244 92.030121,108.386375 
	C91.799889,97.403923 92.721054,86.154282 90.638870,75.510056 
	C87.428040,59.096165 71.758667,45.134865 53.605850,45.924095 
	C43.799007,46.350464 33.958389,45.993870 24.133018,46.002144 
	C17.489241,46.007740 17.003208,46.485851 17.002384,53.094257 
	C16.997543,91.896172 17.000002,130.698090 17.000000,170.500000 
M24.000000,1136.366333 
	C24.535967,1139.495239 21.993093,1144.113281 28.550650,1144.062622 
	C50.211136,1143.894897 71.874062,1143.939087 93.535194,1144.057983 
	C97.151878,1144.077881 98.171326,1142.615112 98.045959,1139.278320 
	C97.864655,1134.452881 97.861397,1129.610352 98.040779,1124.784790 
	C98.202232,1120.441528 96.253334,1118.886719 92.047325,1118.951660 
	C82.218544,1119.103271 72.379654,1118.795532 62.557495,1119.092163 
	C58.101292,1119.226807 56.890301,1117.709229 56.914394,1113.370117 
	C57.078159,1083.877808 57.000019,1054.383911 56.999992,1024.890625 
	C56.999962,985.399536 56.952190,945.908264 57.072071,906.417542 
	C57.084358,902.368530 56.023422,900.730957 51.729485,900.916138 
	C44.577740,901.224609 37.383141,901.326233 30.244560,900.891479 
	C25.010138,900.572754 23.888557,902.516785 23.898039,907.445984 
	C24.044184,983.428589 24.000004,1059.411499 24.000000,1136.366333 
M717.332031,1119.000000 
	C709.000244,1119.000000 700.668396,1119.000732 692.336609,1118.999756 
	C685.002014,1118.998901 685.000366,1118.998047 685.000305,1111.652832 
	C684.999817,1043.498779 684.974976,975.344666 685.061829,907.190735 
	C685.067017,903.074341 684.667358,900.579407 679.499817,900.891785 
	C672.360535,901.323364 665.159058,901.296936 658.015991,900.898254 
	C653.041260,900.620544 651.894714,902.474365 651.907654,907.174133 
	C652.053650,959.997314 651.999939,1012.820984 652.000000,1065.644531 
	C652.000000,1089.973389 652.024231,1114.302124 651.970398,1138.630859 
	C651.963501,1141.757202 652.039368,1144.093384 656.316162,1144.065063 
	C678.144531,1143.920898 699.974487,1143.953491 721.803406,1144.045288 
	C725.178772,1144.059570 726.152527,1142.619019 726.038818,1139.510010 
	C725.880554,1135.183350 726.002869,1130.846436 725.999329,1126.513916 
	C725.993286,1119.189453 725.827026,1119.029541 717.332031,1119.000000 
M16.510147,332.015442 
	C17.684801,340.470917 18.750683,348.943207 20.056265,357.378418 
	C22.966251,376.179626 26.124235,394.943054 28.942842,413.757568 
	C32.103783,434.857239 34.910717,456.010345 38.175331,477.093170 
	C38.458042,478.918884 40.888737,481.651093 42.525883,481.806152 
	C48.508789,482.372864 54.587643,482.200317 60.606979,481.874420 
	C61.789257,481.810394 63.663582,479.957550 63.873463,478.704376 
	C66.717941,461.720306 69.401268,444.708008 71.964432,427.678558 
	C73.797134,415.502167 75.284218,403.273804 77.115303,391.097168 
	C79.651573,374.231140 82.363449,357.391479 85.005035,340.541290 
	C86.960510,328.067749 88.980072,315.603912 90.862755,303.119415 
	C92.013763,295.486816 93.002983,287.828796 93.973160,280.170563 
	C94.287781,277.687103 93.512375,275.945160 90.492760,275.985718 
	C84.662384,276.064026 78.816612,275.797668 73.008743,276.168213 
	C71.611023,276.257355 69.343147,278.138428 69.160942,279.432709 
	C67.557518,290.822144 66.234909,302.254730 65.029350,313.695618 
	C63.872997,324.669342 63.106335,335.684906 61.893795,346.651733 
	C60.413345,360.041718 58.493481,373.383575 57.050243,386.777100 
	C55.814880,398.241455 55.041542,409.754913 53.933685,421.234100 
	C53.653946,424.132660 52.876770,426.983185 52.328178,429.855804 
	C50.777493,427.237762 50.274208,424.700043 50.021458,422.137634 
	C49.261227,414.430176 48.739952,406.697083 47.866646,399.003357 
	C46.347298,385.618134 44.520897,372.267456 43.037971,358.878510 
	C41.841602,348.076813 41.052559,337.230560 39.919422,326.421204 
	C38.359531,311.540894 36.568413,296.684601 35.051136,281.800232 
	C34.663445,277.996979 33.031868,276.016022 29.190445,276.006104 
	C23.858877,275.992340 18.523052,276.130066 13.197164,275.955414 
	C9.810527,275.844360 8.619988,277.394470 9.014586,280.483002 
	C9.805242,286.671448 10.644864,292.854034 11.517198,299.031586 
	C13.032311,309.761047 14.587609,320.484863 16.510147,332.015442 
z"/>
<path fill="#939598" opacity="1.000000" stroke="none" 
	d="
M494.110779,447.942963 
	C522.557800,460.098541 550.620667,472.204834 578.690186,484.295898 
	C614.452881,499.700775 650.216736,515.102783 685.988770,530.485901 
	C698.063538,535.678467 710.194702,540.742126 722.208923,546.070374 
	C723.457520,546.624146 724.876343,548.578735 724.882202,549.889282 
	C725.029480,583.036438 724.998108,616.184265 724.998108,650.317017 
	C625.384766,607.531372 526.345093,564.992126 427.011536,522.326660 
	C427.011536,496.111450 427.011536,469.812683 427.011536,442.755371 
	C327.858185,485.322571 229.243515,527.658508 130.008820,570.260620 
	C130.008820,562.785583 129.902069,555.991089 130.117416,549.206909 
	C130.151962,548.118713 131.399399,546.549255 132.467880,546.089478 
	C160.836838,533.881714 189.281662,521.850403 217.658417,509.660706 
	C240.458939,499.866302 263.154083,489.826569 285.956848,480.037506 
	C310.408447,469.540619 334.956329,459.268066 359.414948,448.787506 
	C379.202698,440.308441 399.017670,431.880127 418.617096,422.981262 
	C425.577240,419.821045 431.334320,420.619446 438.114197,423.758820 
	C456.446198,432.247437 475.164520,439.901703 494.110779,447.942963 
z"/>
<path fill="#939598" opacity="1.000000" stroke="none" 
	d="
M130.163742,172.034195 
	C135.148972,169.516724 140.056076,166.826660 145.139450,164.526047 
	C151.304733,161.735764 157.617767,159.271744 163.868790,156.671173 
	C175.100281,151.998596 186.376373,147.429794 197.551193,142.625412 
	C205.708649,139.118286 213.667160,135.147202 221.834000,131.663406 
	C232.418106,127.148453 243.194199,123.080940 253.751328,118.506195 
	C263.296661,114.369881 272.575775,109.619469 282.118866,105.477631 
	C302.008179,96.845375 322.007751,88.467583 341.936401,79.925491 
	C357.341766,73.322235 372.708099,66.627998 388.091827,59.974331 
	C400.609802,54.560158 413.109589,49.102978 425.676575,43.805088 
	C426.818146,43.323837 428.555328,43.483967 429.740173,43.990818 
	C452.250305,53.620373 474.702942,63.384232 497.200378,73.043709 
	C524.671387,84.838631 552.194519,96.512421 579.654297,108.333252 
	C602.445862,118.144524 625.144348,128.172241 647.946411,137.959015 
	C672.397461,148.453552 696.942200,158.730194 721.364624,169.290131 
	C722.933350,169.968430 724.835815,172.258194 724.845215,173.808823 
	C725.045593,206.955963 724.997253,240.104599 724.997253,273.940979 
	C718.397461,271.179321 712.207397,268.630310 706.049744,266.005249 
	C680.813782,255.246857 655.563477,244.521545 630.365173,233.675659 
	C607.573120,223.865448 584.875732,213.835052 562.074341,204.046738 
	C537.624207,193.550705 513.079590,183.275040 488.617401,172.807068 
	C468.978821,164.403229 449.366333,155.934753 429.868042,147.213791 
	C428.396790,146.555740 427.136322,143.652771 427.121216,141.782486 
	C426.935333,118.791176 427.000061,95.797844 427.000000,72.805031 
	C427.000000,71.011162 427.000000,69.217300 427.000000,66.597740 
	C417.305695,70.702332 408.270630,74.506981 399.252136,78.350517 
	C379.154755,86.915703 359.048065,95.459610 338.978699,104.090080 
	C323.277893,110.841919 307.650238,117.763924 291.948883,124.514496 
	C272.029236,133.078659 252.058777,141.524597 232.127258,150.061325 
	C214.758469,157.500443 197.429810,165.033371 180.052780,172.453186 
	C164.654388,179.028168 149.213882,185.504532 133.401978,191.594620 
	C133.007965,186.716843 133.288742,182.241943 132.871552,177.833069 
	C132.682236,175.832611 131.109116,173.963104 130.163742,172.034195 
z"/>
<path fill="#939598" opacity="1.000000" stroke="none" 
	d="
M132.996933,358.164459 
	C147.522018,352.030090 162.058090,345.921570 176.569534,339.755096 
	C196.828232,331.146423 217.116180,322.603943 237.301544,313.826050 
	C253.259064,306.886627 269.025879,299.509003 284.976807,292.554077 
	C305.608032,283.558411 326.344238,274.803650 347.023895,265.918793 
	C364.325073,258.485474 381.613159,251.021698 398.900604,243.556458 
	C406.595154,240.233719 414.296265,236.924622 421.952393,233.515030 
	C427.728882,230.942505 432.525513,234.199112 437.334259,236.240585 
	C455.489044,243.947861 473.474823,252.052307 491.599701,259.831329 
	C513.788208,269.354492 536.081970,278.632416 558.275635,288.143829 
	C576.253052,295.848206 594.123962,303.800690 612.088989,311.534149 
	C632.006470,320.108002 651.985168,328.539581 671.922241,337.068146 
	C686.879395,343.466431 701.813110,349.919678 716.756165,356.350922 
	C717.363708,356.612396 717.950134,357.111206 718.563843,357.141083 
	C725.309387,357.469330 725.121521,361.900360 725.089722,367.025574 
	C724.905884,396.684906 725.000000,426.345917 725.000000,456.006378 
	C725.000000,457.827148 725.000000,459.647919 725.000000,462.157623 
	C716.416687,458.513428 708.320679,455.087952 700.234070,451.640442 
	C680.135803,443.071991 660.028687,434.524017 639.950378,425.909119 
	C624.545471,419.299438 609.195679,412.561218 593.791260,405.950500 
	C573.411438,397.204590 552.983154,388.571838 532.611877,379.806274 
	C517.061035,373.114868 501.590576,366.236542 486.040466,359.543457 
	C468.386536,351.944763 450.709930,344.396973 432.981995,336.973267 
	C428.984528,335.299286 426.756256,333.475800 426.840057,328.381836 
	C427.210114,305.892609 427.000000,283.393890 427.000000,260.898590 
	C427.000000,259.086792 427.000000,257.274994 427.000000,254.717407 
	C416.665833,259.112762 406.893707,263.266327 397.123779,267.425018 
	C377.021667,275.981750 356.906860,284.508728 336.823578,293.109436 
	C319.602142,300.484528 302.431335,307.977814 285.212616,315.359283 
	C266.791290,323.256256 248.341965,331.088043 229.901337,338.939972 
	C212.368790,346.405182 194.832260,353.860992 177.296387,361.318390 
	C164.147461,366.910156 150.987015,372.475067 137.860489,378.118927 
	C136.372238,378.758789 135.070526,379.832489 133.341202,380.314148 
	C132.999374,374.927124 132.998688,369.930939 132.997955,364.934784 
	C132.997635,362.678009 132.997284,360.421234 132.996933,358.164459 
z"/>
<path fill="#25AAE1" opacity="1.000000" stroke="none" 
	d="
M353.122498,763.008728 
	C367.979889,760.200073 382.425110,757.528564 396.810760,754.567383 
	C421.573273,749.469971 446.281067,744.106384 471.046112,739.021667 
	C486.232269,735.903687 501.439270,732.843750 516.719727,730.244629 
	C525.927979,728.678345 535.330811,728.292297 544.583801,726.946594 
	C569.966187,723.255310 595.537415,723.192932 621.000854,724.238281 
	C648.716797,725.375977 676.096130,729.417175 701.083618,742.992554 
	C709.659912,747.651917 716.724304,753.984802 722.261292,761.916748 
	C724.717163,765.434875 726.770935,770.044739 724.224915,773.885742 
	C721.514587,777.974854 716.532349,778.104980 711.857300,777.051880 
	C702.793518,775.010071 693.799377,772.577148 684.658081,770.985474 
	C676.273804,769.525574 667.742188,768.252380 659.260681,768.151855 
	C643.163940,767.961060 627.023682,768.143311 610.963440,769.154785 
	C596.076294,770.092346 581.200012,771.849854 566.443542,774.072937 
	C540.104614,778.040955 513.798706,782.296570 487.592163,787.055237 
	C460.782745,791.923401 434.132874,797.663696 407.368439,802.788574 
	C386.838379,806.719666 366.244598,810.319946 345.668091,814.005554 
	C332.484283,816.367004 319.317291,818.864075 306.073303,820.833191 
	C296.334137,822.281128 286.502594,823.269592 276.676514,823.935669 
	C258.550964,825.164246 240.409988,826.396851 222.255280,826.898254 
	C204.230072,827.396179 186.084824,828.156250 168.165924,826.685303 
	C147.499420,824.988831 126.774971,822.106750 106.530777,817.665222 
	C84.276024,812.782715 63.003586,804.673706 45.425198,789.062683 
	C38.606018,783.006653 32.730045,776.554565 30.068445,767.743042 
	C39.058674,770.305359 47.776760,773.276245 56.719353,775.207642 
	C66.449409,777.309021 76.371147,778.561951 86.238670,779.980713 
	C117.760414,784.512634 149.500900,783.140320 181.152893,782.797852 
	C198.576126,782.609375 215.978302,780.380188 233.387650,779.040771 
	C241.760574,778.396545 250.145721,777.847595 258.493439,776.956604 
	C268.105103,775.930725 277.688751,774.628540 287.271271,773.346924 
	C297.657349,771.957703 308.051910,770.603821 318.399170,768.960144 
	C329.853027,767.140625 341.257568,765.010437 353.122498,763.008728 
z"/>
<path fill="#939598" opacity="1.000000" stroke="none" 
	d="
M357.731537,1147.000000 
	C344.566040,1147.535645 332.707245,1144.800537 322.101715,1137.604492 
	C314.075500,1132.158691 309.928894,1124.002075 309.180023,1114.771973 
	C308.134979,1101.891602 308.079712,1088.911011 308.045898,1075.972168 
	C307.927551,1030.649658 307.844238,985.325562 308.093445,940.003967 
	C308.169769,926.124268 311.929169,913.199341 324.984192,905.863220 
	C330.831451,902.577393 337.757141,900.277405 344.413757,899.552063 
	C360.123230,897.840210 375.866669,898.139587 390.090515,906.666504 
	C399.889221,912.540649 403.305908,922.275940 404.916656,932.784241 
	C405.714264,937.987488 405.674530,943.320007 405.995911,948.595032 
	C406.225128,952.356750 404.478760,954.070251 400.670135,954.026306 
	C392.839630,953.935852 385.006927,953.952515 377.176056,954.025146 
	C374.646057,954.048584 373.045227,953.467468 372.931366,950.508179 
	C372.760529,946.065979 372.235046,941.638306 372.018799,937.196716 
	C371.657410,929.774475 366.873810,924.480896 359.111694,923.098267 
	C353.719666,922.137817 345.111725,926.809692 343.600250,932.060425 
	C342.568146,935.645935 342.070862,939.508118 342.064423,943.247803 
	C341.970581,997.735107 342.052032,1052.222778 341.956696,1106.710083 
	C341.937317,1117.785522 348.201080,1121.464966 356.348083,1121.683838 
	C364.999939,1121.916138 371.464661,1116.741211 371.786926,1107.098999 
	C372.476837,1086.460083 371.965393,1065.782104 372.034424,1045.120361 
	C372.044373,1042.141968 370.952209,1041.069458 367.938995,1040.940796 
	C355.996246,1040.431030 356.000000,1040.343140 356.000000,1028.704590 
	C356.000000,1016.000000 356.000000,1016.000000 368.980438,1016.000000 
	C378.644897,1016.000061 388.309509,1015.963989 397.973724,1016.012329 
	C404.822968,1016.046570 405.997101,1017.278931 405.997894,1024.161011 
	C406.002258,1061.819092 406.003662,1099.477051 405.996460,1137.135132 
	C405.995239,1143.430542 405.427399,1143.878418 399.131317,1144.029541 
	C393.883331,1144.155396 388.713226,1144.560913 386.421906,1138.148560 
	C386.076202,1137.181152 384.328796,1136.714600 383.070862,1135.915405 
	C375.787170,1141.983765 367.523468,1145.717285 357.731537,1147.000000 
z"/>
<path fill="#939598" opacity="1.000000" stroke="none" 
	d="
M546.929993,1118.308350 
	C545.922241,1110.532715 544.954041,1103.211914 544.003723,1095.888672 
	C543.623230,1092.956177 543.859375,1089.766235 542.724915,1087.169678 
	C541.934937,1085.361694 539.359131,1083.321045 537.458740,1083.192383 
	C530.494995,1082.720703 523.480103,1083.009644 516.484436,1083.004639 
	C510.652740,1083.000488 510.673950,1087.915894 510.183594,1091.445312 
	C508.487396,1103.654053 507.348480,1115.939941 505.996460,1128.196533 
	C505.635620,1131.467773 505.374847,1134.754272 504.882141,1138.005737 
	C504.288788,1141.921509 502.271393,1144.874146 497.999817,1144.837158 
	C490.403107,1144.771240 482.802521,1144.429932 475.218536,1143.960938 
	C471.927734,1143.757568 471.156555,1141.744629 471.703339,1138.456665 
	C476.249481,1111.121094 480.484436,1083.733643 485.096191,1056.409424 
	C489.541199,1030.073364 494.388611,1003.805298 498.936859,977.486206 
	C503.039429,953.746094 507.018311,929.984314 510.944305,906.214294 
	C511.585541,902.331909 513.702576,900.939392 517.381470,900.980347 
	C523.876587,901.052734 530.382080,901.204773 536.865723,900.921631 
	C540.618896,900.757751 542.392883,902.267761 542.996521,905.753906 
	C544.981201,917.216125 547.048462,928.664246 548.988647,940.133911 
	C551.504150,955.004822 553.914856,969.893433 556.395691,984.770264 
	C558.579407,997.865112 560.817322,1010.950928 562.995117,1024.046753 
	C565.469421,1038.925537 567.876160,1053.815796 570.362793,1068.692505 
	C572.875671,1083.725708 575.443298,1098.749878 578.001282,1113.775635 
	C579.238647,1121.043579 580.400940,1128.326660 581.798035,1135.564209 
	C582.935120,1141.454590 581.540588,1144.510254 575.778503,1144.773926 
	C568.379089,1145.112793 560.899597,1144.543701 553.517517,1143.767334 
	C551.887390,1143.596069 549.498352,1141.085938 549.213501,1139.362671 
	C548.088745,1132.558472 547.662231,1125.638916 546.929993,1118.308350 
M515.364807,1055.732422 
	C521.759155,1060.068359 528.837891,1057.564941 535.620728,1057.492554 
	C536.455261,1057.483521 538.100342,1054.467651 537.945618,1052.994873 
	C536.486023,1039.107788 534.564392,1025.269531 533.075989,1011.385132 
	C531.234131,994.204102 529.687988,976.991333 527.976013,959.796143 
	C527.856628,958.596741 527.422852,957.428589 527.135315,956.245972 
	C525.622803,957.386841 525.156982,958.533813 525.029175,959.717224 
	C524.586975,963.810913 524.340332,967.926147 523.878113,972.017212 
	C522.623901,983.117615 521.260437,994.205750 520.013000,1005.306885 
	C519.241028,1012.177002 518.587280,1019.060608 517.906433,1025.940796 
	C516.951172,1035.593506 516.020020,1045.248657 515.364807,1055.732422 
z"/>
<path fill="#939598" opacity="1.000000" stroke="none" 
	d="
M56.306240,494.646820 
	C62.727753,496.360474 69.102570,497.068024 74.680862,499.559174 
	C82.882767,503.221924 87.201691,511.255127 87.641411,519.435303 
	C88.635056,537.920166 88.567818,556.524353 87.616539,575.012268 
	C87.342781,580.332520 82.793457,585.549377 79.770775,590.551636 
	C78.636070,592.429382 76.269409,593.562744 74.243248,595.215881 
	C77.778412,598.518555 80.572166,601.122131 83.358849,603.733337 
	C87.973389,608.057312 88.818344,613.960388 88.880249,619.623291 
	C89.155190,644.774597 88.945358,669.930908 89.060333,695.084656 
	C89.076881,698.706360 88.024712,700.227844 84.230164,700.061218 
	C78.743439,699.820374 73.230179,699.817810 67.743721,700.061646 
	C63.919163,700.231628 62.921917,698.651733 62.940437,695.058472 
	C63.058048,672.236938 63.218693,649.410706 62.819920,626.595581 
	C62.737782,621.896240 61.199371,616.745300 58.833920,612.672729 
	C55.121437,606.281067 48.702274,604.740173 40.689156,606.659607 
	C40.689156,637.332764 40.689156,668.199829 40.689156,699.051208 
	C32.855637,701.952026 25.595671,701.141968 18.420979,700.629089 
	C15.301181,700.406128 13.803418,698.605408 13.889167,694.921936 
	C14.179858,682.434814 14.000011,669.936768 14.000007,657.442871 
	C13.999991,606.467896 13.985612,555.492920 14.044475,504.518036 
	C14.047279,502.088654 14.310011,499.505981 15.189981,497.287567 
	C15.736146,495.910645 17.668535,494.168182 18.991518,494.157349 
	C31.293877,494.056885 43.599018,494.296967 56.306240,494.646820 
M41.000000,542.500000 
	C41.000000,553.302246 40.999977,564.104553 41.000008,574.906799 
	C41.000034,585.013550 41.023453,585.116943 50.831829,582.898193 
	C58.176376,581.236694 63.384121,575.791809 63.104752,567.943298 
	C62.697094,556.490784 62.486698,544.983948 63.133400,533.553528 
	C63.895893,520.076477 53.117115,513.531494 41.000000,516.774414 
	C41.000000,524.941284 41.000000,533.220642 41.000000,542.500000 
z"/>
<path fill="#939598" opacity="1.000000" stroke="none" 
	d="
M164.000000,1099.000000 
	C164.000000,1034.871094 163.999146,971.242126 164.001297,907.613159 
	C164.001511,901.094971 164.075043,901.007996 170.796570,901.004272 
	C191.950699,900.992493 213.104828,900.993225 234.258957,901.004272 
	C240.312515,901.007446 240.966705,901.649475 240.995911,907.489502 
	C241.016739,911.653625 240.832504,915.826477 241.044678,919.979858 
	C241.279617,924.578979 239.217499,926.141479 234.785599,926.057800 
	C224.961594,925.872192 215.131577,925.972229 205.304199,926.008972 
	C197.792938,926.037048 197.000671,926.848694 197.000351,934.145630 
	C196.999390,956.632324 197.083206,979.119568 196.923981,1001.605103 
	C196.895081,1005.685608 198.044556,1007.119812 202.286636,1007.106201 
	C211.050919,1007.078064 219.815750,1007.698486 228.583282,1007.949463 
	C231.598923,1008.035828 232.063568,1009.779602 232.020859,1012.249878 
	C231.943100,1016.745850 232.019989,1021.244263 231.994492,1025.741455 
	C231.965820,1030.798218 229.967209,1032.902954 224.801712,1032.973877 
	C217.474106,1033.074585 210.141235,1033.123047 202.816177,1032.953247 
	C198.503387,1032.853394 196.935654,1034.688843 196.952271,1038.916626 
	C197.049789,1063.734741 197.038467,1088.553711 196.962128,1113.372070 
	C196.949768,1117.393066 198.564438,1119.083374 202.604340,1119.038574 
	C213.096832,1118.922363 223.591629,1118.965698 234.085190,1119.013306 
	C240.028183,1119.040283 240.985260,1120.061035 240.998138,1125.978149 
	C241.007553,1130.308960 240.812622,1134.650391 241.059540,1138.967041 
	C241.253723,1142.362183 239.917603,1143.979370 236.617386,1143.981934 
	C213.631042,1144.000244 190.644638,1143.966187 167.658432,1144.024048 
	C164.303055,1144.032471 163.966919,1142.111694 163.977112,1139.475952 
	C164.028671,1126.150879 164.000336,1112.825317 164.000000,1099.000000 
z"/>
<path fill="#939598" opacity="1.000000" stroke="none" 
	d="
M17.000000,170.000000 
	C17.000002,130.698090 16.997543,91.896172 17.002384,53.094257 
	C17.003208,46.485851 17.489241,46.007740 24.133018,46.002144 
	C33.958389,45.993870 43.799007,46.350464 53.605850,45.924095 
	C71.758667,45.134865 87.428040,59.096165 90.638870,75.510056 
	C92.721054,86.154282 91.799889,97.403923 92.030121,108.386375 
	C92.190620,116.042244 92.424553,123.732414 91.905586,131.358261 
	C91.126175,142.811264 87.441612,153.099091 77.974228,160.560196 
	C72.313431,165.021393 65.472260,165.136734 58.847748,165.950928 
	C54.145771,166.528824 47.555607,164.919861 45.160515,167.454605 
	C42.672665,170.087479 44.045177,176.531067 44.029800,181.309158 
	C43.961193,202.625015 44.008022,223.941223 43.995247,245.257294 
	C43.991245,251.938324 43.913658,251.993378 37.335560,251.999161 
	C32.506142,252.003403 27.653316,251.703720 22.853830,252.082764 
	C17.993906,252.466599 16.866339,250.162155 16.956673,245.938004 
	C17.113300,238.613953 17.000021,231.284134 17.000010,223.956726 
	C16.999983,206.137817 17.000000,188.318909 17.000000,170.000000 
M44.000000,76.553551 
	C44.000000,77.385956 43.999996,78.218361 44.000000,79.050766 
	C44.000069,99.361382 43.996189,119.672005 44.005657,139.982620 
	C44.006729,142.286087 43.571186,144.668396 47.147240,145.035416 
	C56.308949,145.975739 65.827011,138.125168 65.948433,128.879807 
	C66.138626,114.398491 66.789261,99.856575 65.762611,85.445923 
	C64.853851,72.690018 57.793530,65.363892 44.000000,68.772522 
	C44.000000,70.972488 44.000000,73.273682 44.000000,76.553551 
z"/>
<path fill="#939598" opacity="1.000000" stroke="none" 
	d="
M24.000000,1135.880371 
	C24.000004,1059.411499 24.044184,983.428589 23.898039,907.445984 
	C23.888557,902.516785 25.010138,900.572754 30.244560,900.891479 
	C37.383141,901.326233 44.577740,901.224609 51.729485,900.916138 
	C56.023422,900.730957 57.084358,902.368530 57.072071,906.417542 
	C56.952190,945.908264 56.999962,985.399536 56.999992,1024.890625 
	C57.000019,1054.383911 57.078159,1083.877808 56.914394,1113.370117 
	C56.890301,1117.709229 58.101292,1119.226807 62.557495,1119.092163 
	C72.379654,1118.795532 82.218544,1119.103271 92.047325,1118.951660 
	C96.253334,1118.886719 98.202232,1120.441528 98.040779,1124.784790 
	C97.861397,1129.610352 97.864655,1134.452881 98.045959,1139.278320 
	C98.171326,1142.615112 97.151878,1144.077881 93.535194,1144.057983 
	C71.874062,1143.939087 50.211136,1143.894897 28.550650,1144.062622 
	C21.993093,1144.113281 24.535967,1139.495239 24.000000,1135.880371 
z"/>
<path fill="#939598" opacity="1.000000" stroke="none" 
	d="
M717.805542,1119.000000 
	C725.827026,1119.029541 725.993286,1119.189453 725.999329,1126.513916 
	C726.002869,1130.846436 725.880554,1135.183350 726.038818,1139.510010 
	C726.152527,1142.619019 725.178772,1144.059570 721.803406,1144.045288 
	C699.974487,1143.953491 678.144531,1143.920898 656.316162,1144.065063 
	C652.039368,1144.093384 651.963501,1141.757202 651.970398,1138.630859 
	C652.024231,1114.302124 652.000000,1089.973389 652.000000,1065.644531 
	C651.999939,1012.820984 652.053650,959.997314 651.907654,907.174133 
	C651.894714,902.474365 653.041260,900.620544 658.015991,900.898254 
	C665.159058,901.296936 672.360535,901.323364 679.499817,900.891785 
	C684.667358,900.579407 685.067017,903.074341 685.061829,907.190735 
	C684.974976,975.344666 684.999817,1043.498779 685.000305,1111.652832 
	C685.000366,1118.998047 685.002014,1118.998901 692.336609,1118.999756 
	C700.668396,1119.000732 709.000244,1119.000000 717.805542,1119.000000 
z"/>
<path fill="#939598" opacity="1.000000" stroke="none" 
	d="
M16.318102,331.613220 
	C14.587609,320.484863 13.032311,309.761047 11.517198,299.031586 
	C10.644864,292.854034 9.805242,286.671448 9.014586,280.483002 
	C8.619988,277.394470 9.810527,275.844360 13.197164,275.955414 
	C18.523052,276.130066 23.858877,275.992340 29.190445,276.006104 
	C33.031868,276.016022 34.663445,277.996979 35.051136,281.800232 
	C36.568413,296.684601 38.359531,311.540894 39.919422,326.421204 
	C41.052559,337.230560 41.841602,348.076813 43.037971,358.878510 
	C44.520897,372.267456 46.347298,385.618134 47.866646,399.003357 
	C48.739952,406.697083 49.261227,414.430176 50.021458,422.137634 
	C50.274208,424.700043 50.777493,427.237762 52.328178,429.855804 
	C52.876770,426.983185 53.653946,424.132660 53.933685,421.234100 
	C55.041542,409.754913 55.814880,398.241455 57.050243,386.777100 
	C58.493481,373.383575 60.413345,360.041718 61.893795,346.651733 
	C63.106335,335.684906 63.872997,324.669342 65.029350,313.695618 
	C66.234909,302.254730 67.557518,290.822144 69.160942,279.432709 
	C69.343147,278.138428 71.611023,276.257355 73.008743,276.168213 
	C78.816612,275.797668 84.662384,276.064026 90.492760,275.985718 
	C93.512375,275.945160 94.287781,277.687103 93.973160,280.170563 
	C93.002983,287.828796 92.013763,295.486816 90.862755,303.119415 
	C88.980072,315.603912 86.960510,328.067749 85.005035,340.541290 
	C82.363449,357.391479 79.651573,374.231140 77.115303,391.097168 
	C75.284218,403.273804 73.797134,415.502167 71.964432,427.678558 
	C69.401268,444.708008 66.717941,461.720306 63.873463,478.704376 
	C63.663582,479.957550 61.789257,481.810394 60.606979,481.874420 
	C54.587643,482.200317 48.508789,482.372864 42.525883,481.806152 
	C40.888737,481.651093 38.458042,478.918884 38.175331,477.093170 
	C34.910717,456.010345 32.103783,434.857239 28.942842,413.757568 
	C26.124235,394.943054 22.966251,376.179626 20.056265,357.378418 
	C18.750683,348.943207 17.684801,340.470917 16.318102,331.613220 
z"/>
<path fill="#939598" opacity="1.000000" stroke="none" 
	d="
M132.593811,358.126038 
	C132.997284,360.421234 132.997635,362.678009 132.997955,364.934784 
	C132.998688,369.930939 132.999374,374.927124 133.000305,380.379272 
	C132.067017,381.016418 131.133514,381.197601 130.001709,381.417297 
	C130.001709,374.737000 129.883636,368.309845 130.100830,361.894043 
	C130.144531,360.603119 131.461029,359.355286 132.593811,358.126038 
z"/>
<path fill="#939598" opacity="1.000000" stroke="none" 
	d="
M130.099945,172.496277 
	C131.109116,173.963104 132.682236,175.832611 132.871552,177.833069 
	C133.288742,182.241943 133.007965,186.716843 133.022354,191.642105 
	C132.248505,192.595428 131.464294,193.071472 130.036133,193.938416 
	C130.036133,186.575272 130.036133,179.766830 130.099945,172.496277 
z"/>
<path fill="#FFFFFF" opacity="1.000000" stroke="none" 
	d="
M515.221680,1055.317627 
	C516.020020,1045.248657 516.951172,1035.593506 517.906433,1025.940796 
	C518.587280,1019.060608 519.241028,1012.177002 520.013000,1005.306885 
	C521.260437,994.205750 522.623901,983.117615 523.878113,972.017212 
	C524.340332,967.926147 524.586975,963.810913 525.029175,959.717224 
	C525.156982,958.533813 525.622803,957.386841 527.135315,956.245972 
	C527.422852,957.428589 527.856628,958.596741 527.976013,959.796143 
	C529.687988,976.991333 531.234131,994.204102 533.075989,1011.385132 
	C534.564392,1025.269531 536.486023,1039.107788 537.945618,1052.994873 
	C538.100342,1054.467651 536.455261,1057.483521 535.620728,1057.492554 
	C528.837891,1057.564941 521.759155,1060.068359 515.221680,1055.317627 
z"/>
<path fill="#FFFFFF" opacity="1.000000" stroke="none" 
	d="
M41.000000,542.000000 
	C41.000000,533.220642 41.000000,524.941284 41.000000,516.774414 
	C53.117115,513.531494 63.895893,520.076477 63.133400,533.553528 
	C62.486698,544.983948 62.697094,556.490784 63.104752,567.943298 
	C63.384121,575.791809 58.176376,581.236694 50.831829,582.898193 
	C41.023453,585.116943 41.000034,585.013550 41.000008,574.906799 
	C40.999977,564.104553 41.000000,553.302246 41.000000,542.000000 
z"/>
<path fill="#FFFFFF" opacity="1.000000" stroke="none" 
	d="
M44.000000,76.064209 
	C44.000000,73.273682 44.000000,70.972488 44.000000,68.772522 
	C57.793530,65.363892 64.853851,72.690018 65.762611,85.445923 
	C66.789261,99.856575 66.138626,114.398491 65.948433,128.879807 
	C65.827011,138.125168 56.308949,145.975739 47.147240,145.035416 
	C43.571186,144.668396 44.006729,142.286087 44.005657,139.982620 
	C43.996189,119.672005 44.000069,99.361382 44.000000,79.050766 
	C43.999996,78.218361 44.000000,77.385956 44.000000,76.064209 
z"/>
</svg>